HIERARCHY
ROOT hip
{
	OFFSET 0.000000 0.000000 0.000000 
	CHANNELS 6 Xposition Yposition Zposition Xrotation Zrotation Yrotation
	JOINT abdomen
	{
		OFFSET 0.000000 3.402643 0.000000 
		CHANNELS 3 Xrotation Zrotation Yrotation
		JOINT chest
		{
			OFFSET 0.000000 8.438565 -0.680529 
			CHANNELS 3 Xrotation Zrotation Yrotation
			JOINT neck
			{
				OFFSET 0.000000 10.207942 -0.272212 
				CHANNELS 3 Xrotation Zrotation Yrotation
				JOINT head
				{
					OFFSET 0.000000 3.130431 0.000000 
					CHANNELS 3 Xrotation Zrotation Yrotation
					End Site
					{
						OFFSET 0.000000 3.130435 0.000000 
					}
				}
			}
			JOINT lCollar
			{
				OFFSET 3.470700 6.669187 -0.816635 
				CHANNELS 3 Yrotation Zrotation Xrotation
				JOINT lShldr
				{
					OFFSET 3.198488 0.000000 0.000000 
					CHANNELS 3 Zrotation Yrotation Xrotation
					JOINT lForeArm
					{
						OFFSET 10.139888 0.000000 0.000000 
						CHANNELS 3 Yrotation Zrotation Xrotation
						JOINT lHand
						{
							OFFSET 8.370511 0.000000 0.000000 
							CHANNELS 3 Zrotation Yrotation Xrotation
							End Site
							{
								OFFSET 4.083176 0.000000 0.000000 
							}
						}
					}
				}
			}
			JOINT rCollar
			{
				OFFSET -3.470700 6.669187 -0.816635 
				CHANNELS 3 Yrotation Zrotation Xrotation
				JOINT rShldr
				{
					OFFSET -3.198488 0.000000 0.000000 
					CHANNELS 3 Zrotation Yrotation Xrotation
					JOINT rForeArm
					{
						OFFSET -10.139888 0.000000 0.000000 
						CHANNELS 3 Yrotation Zrotation Xrotation
						JOINT rHand
						{
							OFFSET -8.370511 0.000000 0.000000 
							CHANNELS 3 Zrotation Yrotation Xrotation
							End Site
							{
								OFFSET -4.083176 0.000000 0.000000 
							}
						}
					}
				}
			}
		}
	}
	JOINT lThigh
	{
		OFFSET 5.308129 -1.633274 1.361059 
		CHANNELS 3 Xrotation Zrotation Yrotation
		JOINT lShin
		{
			OFFSET -2.041588 -20.007561 0.000000 
			CHANNELS 3 Xrotation Zrotation Yrotation
			JOINT lFoot
			{
				OFFSET 0.000000 -19.190928 -1.224953 
				CHANNELS 3 Xrotation Yrotation Zrotation
				End Site
				{
					OFFSET 0.000000 -2.449906 4.627600 
				}
			}
		}
	}
	JOINT rThigh
	{
		OFFSET -5.308129 -1.633274 1.361059 
		CHANNELS 3 Xrotation Zrotation Yrotation
		JOINT rShin
		{
			OFFSET 2.041588 -20.007561 0.000000 
			CHANNELS 3 Xrotation Zrotation Yrotation
			JOINT rFoot
			{
				OFFSET 0.000000 -19.190928 -1.224953 
				CHANNELS 3 Xrotation Yrotation Zrotation
				End Site
				{
					OFFSET 0.000000 -2.449906 4.627600 
				}
			}
		}
	}
}
MOTION
Frames: 10
Frame Time: 0.033333
23.322374 40.320900 -20.579222 12.304688 10.371094 1.933594 22.666018 -24.267578 16.158094 0.000000 0.000000 0.000000 -28.476561 -0.537109 5.439361 0.000000 0.000000 0.000000 0.000000 0.000000 0.000000 -56.240234 -34.326176 60.537106 -97.822266 53.095703 29.376955 12.832032 5.498047 -36.278366 0.000000 0.000000 0.000000 63.222656 45.859375 70.869141 42.871094 -41.337887 16.728516 -32.792969 -2.265625 -20.400772 -54.370762 -7.764061 17.584311 71.631577 -3.824022 4.296910 -14.386214 3.534938 2.644805 -18.043905 3.525842 -21.996189 64.242188 0.146315 -1.195434 -6.210746 -3.139849 -27.884146 
21.105463 41.306198 -20.254524 10.546875 10.019532 0.734121 23.554688 -21.455078 18.560881 0.000000 0.000000 0.000000 -27.421875 2.460938 2.988700 0.000000 0.000000 0.000000 0.000000 0.000000 0.000000 -51.738281 -35.537109 56.166203 -113.505859 52.929688 40.888676 20.126953 2.080078 -33.007458 0.000000 0.000000 0.000000 58.398438 40.019535 59.664482 28.408203 -37.041016 -0.361328 -12.968750 -9.873047 -39.855190 -52.492836 -11.435104 8.626248 68.931847 0.351537 0.189470 -10.345244 0.308472 -1.796773 -22.772867 -5.400069 -21.307383 76.056732 4.022661 0.136487 9.596944 -7.065835 -16.718212 
19.907434 41.451752 -21.083069 8.789063 9.316406 0.372675 23.896484 -16.347654 20.214846 0.000000 0.000000 0.000000 -25.849611 7.373047 1.572266 0.000000 0.000000 0.000000 0.000000 0.000000 0.000000 -49.316406 -37.871094 46.064453 -130.126953 46.650394 49.455788 30.996096 -0.498047 -30.878996 0.000000 0.000000 0.000000 51.582031 30.566404 43.725670 31.337891 -42.343750 -6.614518 -10.322265 -17.353514 -58.918926 -50.225418 -15.651679 -0.226953 66.316933 2.617169 -1.880928 -11.818826 -2.637594 -5.617435 -30.546368 -15.956654 -17.585970 91.424805 5.781258 2.699322 22.021900 -10.038540 -5.730489 
20.187346 41.171841 -21.642895 7.197265 7.900391 1.054688 23.017576 -7.568360 18.632813 0.000000 0.000000 0.000000 -22.324217 13.535156 2.502285 0.000000 0.000000 0.000000 0.000000 0.000000 0.000000 -46.669926 -35.390625 33.134766 -132.822266 44.140625 49.221714 39.902348 0.849609 -34.013531 0.000000 0.000000 0.000000 42.812504 21.884766 29.974342 50.761719 -52.753914 6.072228 -20.322266 -20.332029 -65.302734 -47.427746 -17.225122 -5.102963 65.396873 3.329955 -1.769674 -16.748579 -5.434617 -6.788598 -38.844082 -24.264364 -11.763205 105.865181 4.902182 4.339418 27.502031 -8.505519 -0.694748 
20.859138 40.791157 -21.542128 5.273438 5.263590 2.295846 21.435547 3.681640 13.359375 0.000000 0.000000 0.000000 -17.587889 19.160158 3.518830 0.000000 0.000000 0.000000 0.000000 0.000000 0.000000 -44.462891 -27.109375 24.048285 -118.750000 48.730469 39.865707 36.718754 7.246094 -44.979237 0.000000 0.000000 0.000000 32.402344 17.529297 18.134769 86.757813 -59.648438 36.219364 -32.539063 -19.697268 -60.696655 -44.587265 -15.457850 -4.043717 65.978561 5.068229 -2.575370 -20.407677 -8.387980 -6.427524 -45.914890 -29.089626 -5.412900 115.647354 3.505765 5.454344 28.385082 -6.587413 1.308324 
20.926317 41.037483 -20.982298 4.042969 1.933594 2.109704 19.335938 15.292970 6.193982 0.000000 0.000000 0.000000 -13.183594 22.324219 3.226365 0.000000 0.000000 0.000000 0.000000 0.000000 0.000000 -44.677734 -16.230469 23.779297 -96.894531 52.167969 21.718748 19.736326 18.359373 -65.156250 0.000000 0.000000 0.000000 21.445313 19.082033 3.193359 121.962891 -54.833984 65.097656 -45.429688 -14.951173 -47.158203 -41.481770 -10.869000 0.337988 64.374352 8.945202 -8.040262 -21.268770 -8.211263 -5.197262 -50.327332 -30.329056 -2.177984 118.433693 2.432632 4.036555 25.114328 -6.328696 0.453409 
21.127855 41.989185 -19.705894 4.570313 -0.712891 0.165894 17.919924 21.611326 1.585628 0.000000 0.000000 0.000000 -11.425781 23.203125 0.072207 0.000000 0.000000 0.000000 0.000000 0.000000 0.000000 -45.751949 -9.160156 27.586336 -83.691406 55.126953 7.207031 3.496094 28.466797 -83.901596 0.000000 0.000000 0.000000 14.521484 19.218750 -13.750000 140.566406 -45.957035 78.883972 -54.765625 -10.683594 -32.775246 -37.539654 -7.039670 1.333179 60.202217 9.100606 -9.598753 -20.642588 -6.988540 -4.385182 -52.035000 -29.019947 -2.163879 115.480087 1.757271 1.562563 18.984360 -8.350334 -1.648742 
20.971102 43.735847 -18.093594 6.328125 -1.064453 -5.634766 17.392578 21.093750 0.703125 0.000000 0.000000 0.000000 -10.556642 18.808594 -3.701171 0.000000 0.000000 0.000000 0.000000 0.000000 0.000000 -46.152348 -9.794923 29.335939 -86.621094 59.355473 8.134767 -0.380859 31.318361 -88.076172 0.000000 0.000000 0.000000 14.082031 15.605471 -21.540340 143.710938 -44.667969 80.927734 -53.330078 -9.042969 -27.968752 -32.067467 -4.736537 1.804223 52.671703 6.996791 -8.231525 -18.616232 -5.500278 -4.567091 -49.618168 -25.595150 -5.177470 103.909515 1.532925 -0.870345 12.851340 -11.787575 -3.004741 
20.153757 45.818398 -17.925646 5.976563 0.341797 -15.644516 17.392578 14.414063 2.460938 0.000000 0.000000 0.000000 -8.798828 9.306641 -6.337892 0.000000 0.000000 0.000000 0.000000 0.000000 0.000000 -43.349609 -19.687502 26.324835 -108.515625 60.126953 28.691404 5.898438 26.699219 -78.261719 0.000000 0.000000 0.000000 18.593750 10.019531 -15.349860 132.109375 -52.695313 72.331985 -36.269531 -13.847656 -37.834366 -24.862970 -2.812070 3.421393 41.812122 4.953390 -5.964845 -15.115294 -2.454261 -6.268959 -42.366909 -21.264992 -10.935262 82.920959 -1.074775 -2.840953 8.645802 -13.863398 -3.339326 
18.989317 47.744202 -18.810173 2.812500 1.757813 -30.234076 16.689453 3.505859 5.976563 0.000000 0.000000 0.000000 -7.734375 -1.064453 -6.865416 0.000000 0.000000 0.000000 0.000000 0.000000 0.000000 -37.500004 -37.822269 20.712891 -129.794922 52.724613 50.392620 18.242188 18.505859 -59.433594 0.000000 0.000000 0.000000 24.423830 5.000000 1.768429 108.037109 -61.591797 52.811325 -8.173828 -23.564451 -62.324219 -15.976367 -1.601184 8.568157 30.107637 3.012724 -3.540132 -10.001745 -0.273297 -7.302996 -30.023418 -15.443743 -17.217421 53.020687 -3.876715 -2.144960 9.264768 -13.464246 0.841438 
